M48
;DRILL file {kicad (2014-10-27 BZR 5228)-product} date 5/29/2015 10:40:41 AM
;FORMAT={-:-/ absolute / inch / decimal}
FMAT,2
INCH,TZ
T1C0.025
T2C0.040
T3C0.046
T4C0.071
T5C0.108
T6C0.118
%
G90
G05
M72
T1
X7.5625Y-4.45
X7.9Y-4.9875
X7.95Y-6.
X8.Y-6.
X8.0625Y-4.95
X8.175Y-5.7875
X8.325Y-5.1875
X8.525Y-5.525
X8.5625Y-5.3509
X8.6Y-5.525
X8.6125Y-4.3125
X8.65Y-5.7625
X8.8375Y-4.9375
X8.8375Y-4.9875
X8.8625Y-4.8
X8.875Y-4.3375
X8.9125Y-4.9375
X8.9125Y-4.9875
X8.9125Y-5.2875
X8.9625Y-4.6875
X9.0125Y-4.225
X9.0125Y-5.175
X9.075Y-4.4375
X9.2Y-4.3375
X9.3125Y-4.9375
X9.3125Y-5.0375
X9.35Y-5.7625
X9.4125Y-4.575
T2
X7.375Y-3.9875
X7.375Y-4.0875
X7.475Y-3.9875
X7.475Y-4.0875
X7.575Y-3.9875
X7.575Y-4.0875
X7.675Y-3.9875
X7.675Y-4.0875
X7.775Y-3.9875
X7.775Y-4.0875
X7.875Y-3.9875
X7.875Y-4.0875
X7.975Y-3.9875
X7.975Y-4.0875
X8.075Y-3.9875
X8.075Y-4.0875
X8.175Y-3.9875
X8.175Y-4.0875
X8.275Y-3.9875
X8.275Y-4.0875
X8.375Y-3.9875
X8.375Y-4.0875
X8.475Y-3.9875
X8.475Y-4.0875
X8.575Y-3.9875
X8.575Y-4.0875
X8.675Y-3.9875
X8.675Y-4.0875
X8.775Y-3.9875
X8.775Y-4.0875
X8.875Y-3.9875
X8.875Y-4.0875
X8.975Y-3.9875
X8.975Y-4.0875
X9.075Y-3.9875
X9.075Y-4.0875
X9.175Y-3.9875
X9.175Y-4.0875
X9.275Y-3.9875
X9.275Y-4.0875
T3
X7.2621Y-5.5141
X7.2621Y-5.7109
X7.9629Y-5.5141
X7.9629Y-5.7109
T4
X7.3193Y-5.1167
X7.3193Y-5.3333
X7.3196Y-4.6062
X7.3196Y-4.8227
X7.4846Y-5.1167
X7.4846Y-5.3333
X7.485Y-4.6062
X7.485Y-4.8227
X7.65Y-5.1167
X7.65Y-5.3333
X7.6504Y-4.6062
X7.6504Y-4.8227
X7.8154Y-5.1167
X7.8154Y-5.3333
X7.8157Y-4.6062
X7.8157Y-4.8227
X7.9807Y-5.1167
X7.9807Y-5.3333
X7.9811Y-4.6062
X7.9811Y-4.8227
T5
X7.1833Y-4.0375
X7.1833Y-5.9273
X9.4667Y-4.0375
X9.4667Y-5.9273
T6
X7.1343Y-5.3152
X7.1346Y-4.8046
X8.1657Y-5.3152
X8.1661Y-4.8046
T0
M30
