%FSLAX46Y46*%
G04 Gerber Fmt 4.6, Leading zero omitted, Abs format (unit mm)*
G04 Created by KiCad (PCBNEW (2014-10-27 BZR 5228)-product) date 5/29/2015 4:18:03 PM*
%MOMM*%
G01*
G04 APERTURE LIST*
%ADD10C,0.100000*%
%ADD11R,0.750000X0.800000*%
%ADD12R,0.800000X0.750000*%
%ADD13R,1.600200X2.999740*%
%ADD14R,1.800860X2.499360*%
%ADD15R,0.797560X0.797560*%
%ADD16R,0.508000X0.762000*%
%ADD17R,5.400040X2.900680*%
%ADD18C,6.200000*%
%ADD19C,1.524000*%
%ADD20R,0.800100X0.800100*%
%ADD21R,1.000760X0.701040*%
%ADD22R,0.900000X0.500000*%
%ADD23R,0.500000X0.900000*%
%ADD24R,0.600000X1.550000*%
%ADD25R,1.550000X0.600000*%
%ADD26R,1.175000X1.175000*%
%ADD27R,1.998980X5.499100*%
%ADD28R,0.400000X1.000000*%
%ADD29C,2.700000*%
%ADD30C,3.300000*%
%ADD31C,1.700000*%
G04 APERTURE END LIST*
D10*
D11*
X219075000Y-124027500D03*
X219075000Y-125527500D03*
X220980000Y-124027500D03*
X220980000Y-125527500D03*
X236537500Y-122122500D03*
X236537500Y-123622500D03*
X236537500Y-131242500D03*
X236537500Y-129742500D03*
X215582500Y-121717500D03*
X215582500Y-120217500D03*
D12*
X214427500Y-131762500D03*
X212927500Y-131762500D03*
D11*
X223520000Y-118542500D03*
X223520000Y-117042500D03*
D12*
X214515000Y-149542500D03*
X216015000Y-149542500D03*
D11*
X220980000Y-146252500D03*
X220980000Y-147752500D03*
D13*
X214630000Y-135912860D03*
X214630000Y-140312140D03*
X220345000Y-135912860D03*
X220345000Y-140312140D03*
X205422500Y-147977860D03*
X205422500Y-152377140D03*
X199707500Y-147977860D03*
X199707500Y-152377140D03*
D12*
X207125000Y-143192500D03*
X205625000Y-143192500D03*
X210300000Y-145097500D03*
X208800000Y-145097500D03*
X232295000Y-113347500D03*
X233795000Y-113347500D03*
D14*
X220662500Y-117381020D03*
X220662500Y-121378980D03*
D15*
X241141250Y-142919450D03*
X241141250Y-144418050D03*
X241141250Y-135299450D03*
X241141250Y-136798050D03*
X241141250Y-127679450D03*
X241141250Y-129178050D03*
D16*
X226974400Y-112712500D03*
X227685600Y-112712500D03*
D17*
X229235000Y-150733760D03*
X229235000Y-140731240D03*
D18*
X182455000Y-150552500D03*
X240455000Y-150552500D03*
X240455000Y-102552500D03*
X182455000Y-102552500D03*
D19*
X187325000Y-103822500D03*
X189865000Y-103822500D03*
X189865000Y-101282500D03*
X192405000Y-103822500D03*
X192405000Y-101282500D03*
X194945000Y-103822500D03*
X194945000Y-101282500D03*
X197485000Y-103822500D03*
X197485000Y-101282500D03*
X200025000Y-103822500D03*
X200025000Y-101282500D03*
X202565000Y-103822500D03*
X202565000Y-101282500D03*
X205105000Y-103822500D03*
X205105000Y-101282500D03*
X207645000Y-103822500D03*
X207645000Y-101282500D03*
X210185000Y-103822500D03*
X210185000Y-101282500D03*
X212725000Y-103822500D03*
X212725000Y-101282500D03*
X215265000Y-103822500D03*
X215265000Y-101282500D03*
X217805000Y-103822500D03*
X217805000Y-101282500D03*
X220345000Y-103822500D03*
X220345000Y-101282500D03*
X222885000Y-103822500D03*
X222885000Y-101282500D03*
X225425000Y-103822500D03*
X225425000Y-101282500D03*
X227965000Y-103822500D03*
X227965000Y-101282500D03*
X230505000Y-103822500D03*
X230505000Y-101282500D03*
X233045000Y-103822500D03*
X233045000Y-101282500D03*
X235585000Y-103822500D03*
X235585000Y-101282500D03*
X187325000Y-101282500D03*
D20*
X191608750Y-110917990D03*
X189708750Y-110917990D03*
X190658750Y-112916970D03*
D21*
X193198750Y-112871250D03*
X193198750Y-111918750D03*
X193198750Y-110966250D03*
X195738750Y-110966250D03*
X195738750Y-111918750D03*
X195738750Y-112871250D03*
D22*
X210185000Y-108382500D03*
X210185000Y-106882500D03*
X212725000Y-108382500D03*
X212725000Y-106882500D03*
X215265000Y-108382500D03*
X215265000Y-106882500D03*
X217805000Y-108382500D03*
X217805000Y-106882500D03*
X226695000Y-120217500D03*
X226695000Y-121717500D03*
X228600000Y-120217500D03*
X228600000Y-121717500D03*
X223520000Y-133147500D03*
X223520000Y-131647500D03*
X225425000Y-133147500D03*
X225425000Y-131647500D03*
X227330000Y-133147500D03*
X227330000Y-131647500D03*
X211772500Y-121717500D03*
X211772500Y-120217500D03*
X223520000Y-120217500D03*
X223520000Y-121717500D03*
X217805000Y-120130000D03*
X217805000Y-118630000D03*
D23*
X210300000Y-147002500D03*
X208800000Y-147002500D03*
D22*
X195421250Y-109176250D03*
X195421250Y-107676250D03*
X193516250Y-109176250D03*
X193516250Y-107676250D03*
D23*
X205625000Y-145097500D03*
X207125000Y-145097500D03*
X208800000Y-141287500D03*
X210300000Y-141287500D03*
X210300000Y-143192500D03*
X208800000Y-143192500D03*
X226580000Y-110807500D03*
X228080000Y-110807500D03*
X226580000Y-108902500D03*
X228080000Y-108902500D03*
X226580000Y-106997500D03*
X228080000Y-106997500D03*
D22*
X241141250Y-139108750D03*
X241141250Y-140608750D03*
X241141250Y-131488750D03*
X241141250Y-132988750D03*
X241141250Y-123868750D03*
X241141250Y-125368750D03*
D24*
X211772500Y-129382500D03*
X213042500Y-129382500D03*
X214312500Y-129382500D03*
X215582500Y-129382500D03*
X215582500Y-123982500D03*
X214312500Y-123982500D03*
X213042500Y-123982500D03*
X211772500Y-123982500D03*
D25*
X217965000Y-147637500D03*
X217965000Y-146367500D03*
X217965000Y-145097500D03*
X217965000Y-143827500D03*
X212565000Y-143827500D03*
X212565000Y-145097500D03*
X212565000Y-146367500D03*
X212565000Y-147637500D03*
D26*
X214677500Y-145145000D03*
X214677500Y-146320000D03*
X215852500Y-145145000D03*
X215852500Y-146320000D03*
D25*
X235745000Y-111442500D03*
X235745000Y-110172500D03*
X235745000Y-108902500D03*
X235745000Y-107632500D03*
X230345000Y-107632500D03*
X230345000Y-108902500D03*
X230345000Y-110172500D03*
X230345000Y-111442500D03*
D27*
X232727500Y-121983500D03*
X232727500Y-131381500D03*
D28*
X222817500Y-129582500D03*
X223467500Y-129582500D03*
X224117500Y-129582500D03*
X224767500Y-129582500D03*
X225417500Y-129582500D03*
X226067500Y-129582500D03*
X226717500Y-129582500D03*
X227367500Y-129582500D03*
X228017500Y-129582500D03*
X228667500Y-129582500D03*
X228667500Y-123782500D03*
X228017500Y-123782500D03*
X227367500Y-123782500D03*
X226717500Y-123782500D03*
X226067500Y-123782500D03*
X225417500Y-123782500D03*
X224767500Y-123782500D03*
X224117500Y-123782500D03*
X223467500Y-123782500D03*
X222817500Y-123782500D03*
D29*
X194310000Y-129965000D03*
X194310000Y-135465000D03*
X198510000Y-129965000D03*
X198510000Y-135465000D03*
X202710000Y-129965000D03*
X202710000Y-135465000D03*
X190110000Y-135465000D03*
X190110000Y-129965000D03*
X185910000Y-135465000D03*
X185910000Y-129965000D03*
D30*
X207410000Y-135005000D03*
X181210000Y-135005000D03*
D29*
X194319000Y-116996501D03*
X194319000Y-122496501D03*
X198519000Y-116996501D03*
X198519000Y-122496501D03*
X202719000Y-116996501D03*
X202719000Y-122496501D03*
X190119000Y-122496501D03*
X190119000Y-116996501D03*
X185919000Y-122496501D03*
X185919000Y-116996501D03*
D30*
X207419000Y-122036501D03*
X181219000Y-122036501D03*
D31*
X184457500Y-140057500D03*
X184457500Y-145057500D03*
X202257500Y-145057500D03*
X202257500Y-140057500D03*
M02*
