%FSLAX46Y46*%
G04 Gerber Fmt 4.6, Leading zero omitted, Abs format (unit mm)*
G04 Created by KiCad (PCBNEW (2014-10-27 BZR 5228)-product) date 5/29/2015 4:18:03 PM*
%MOMM*%
G01*
G04 APERTURE LIST*
%ADD10C,0.100000*%
%ADD11C,0.150000*%
%ADD12C,6.200000*%
%ADD13C,1.524000*%
%ADD14C,2.700000*%
%ADD15C,3.300000*%
%ADD16C,1.700000*%
G04 APERTURE END LIST*
D10*
D11*
X190418720Y-151279860D02*
X190058040Y-152750520D01*
X190058040Y-152750520D02*
X189778640Y-151688800D01*
X189778640Y-151688800D02*
X189468760Y-152760680D01*
X189468760Y-152760680D02*
X189128400Y-151310340D01*
X191838580Y-151970740D02*
X191048640Y-151960580D01*
X191048640Y-151960580D02*
X191038480Y-151970740D01*
X191038480Y-151970740D02*
X191038480Y-151960580D01*
X190997840Y-151249380D02*
X190997840Y-152791160D01*
X191886840Y-151239220D02*
X191886840Y-152808940D01*
X191886840Y-152808940D02*
X191876680Y-152798780D01*
X192438020Y-151340820D02*
X192788540Y-151259540D01*
X192788540Y-151259540D02*
X193108580Y-151249380D01*
X193108580Y-151249380D02*
X193347340Y-151450040D01*
X193347340Y-151450040D02*
X193377820Y-151719280D01*
X193377820Y-151719280D02*
X193136520Y-151960580D01*
X193136520Y-151960580D02*
X192747900Y-152090120D01*
X192747900Y-152090120D02*
X192567560Y-152250140D01*
X192567560Y-152250140D02*
X192526920Y-152549860D01*
X192526920Y-152549860D02*
X192758060Y-152770840D01*
X192758060Y-152770840D02*
X193078100Y-152798780D01*
X193078100Y-152798780D02*
X193428620Y-152689560D01*
X194467480Y-151239220D02*
X194716400Y-151259540D01*
X194716400Y-151259540D02*
X194957700Y-151500840D01*
X194957700Y-151500840D02*
X195046600Y-151991060D01*
X195046600Y-151991060D02*
X195018660Y-152339040D01*
X195018660Y-152339040D02*
X194818000Y-152659080D01*
X194818000Y-152659080D02*
X194566540Y-152781000D01*
X194566540Y-152781000D02*
X194256660Y-152709880D01*
X194256660Y-152709880D02*
X194038220Y-152529540D01*
X194038220Y-152529540D02*
X193967100Y-152069800D01*
X193967100Y-152069800D02*
X194017900Y-151660860D01*
X194017900Y-151660860D02*
X194127120Y-151378920D01*
X194127120Y-151378920D02*
X194487800Y-151249380D01*
X193868040Y-149519640D02*
X194127120Y-150080980D01*
X194127120Y-150080980D02*
X193588640Y-150599140D01*
X193588640Y-150599140D02*
X193067940Y-150329900D01*
X193067940Y-150329900D02*
X192788540Y-150489920D01*
X191348360Y-150469600D02*
X191018160Y-150279100D01*
X191018160Y-150279100D02*
X190578740Y-150609300D01*
X190578740Y-150609300D02*
X190106300Y-150119080D01*
X190106300Y-150119080D02*
X190388240Y-149639020D01*
X190388240Y-149639020D02*
X190197740Y-149169120D01*
X190197740Y-149169120D02*
X189588140Y-148981160D01*
X189588140Y-148981160D02*
X189588140Y-148300440D01*
X189588140Y-148300440D02*
X190146940Y-148160740D01*
X190146940Y-148160740D02*
X190347600Y-147589240D01*
X190347600Y-147589240D02*
X190078360Y-147119340D01*
X190078360Y-147119340D02*
X190548260Y-146608800D01*
X190548260Y-146608800D02*
X191066420Y-146870420D01*
X191066420Y-146870420D02*
X191536320Y-146669760D01*
X191536320Y-146669760D02*
X191706500Y-146128740D01*
X191706500Y-146128740D02*
X192397380Y-146110960D01*
X192397380Y-146110960D02*
X192608200Y-146659600D01*
X192608200Y-146659600D02*
X193027300Y-146829780D01*
X193027300Y-146829780D02*
X193578480Y-146560540D01*
X193578480Y-146560540D02*
X194096640Y-147088860D01*
X194096640Y-147088860D02*
X193847720Y-147629880D01*
X193847720Y-147629880D02*
X194017900Y-148109940D01*
X194017900Y-148109940D02*
X194566540Y-148209000D01*
X194566540Y-148209000D02*
X194576700Y-148910040D01*
X194576700Y-148910040D02*
X194017900Y-149110700D01*
X194017900Y-149110700D02*
X193878200Y-149509480D01*
X191736980Y-149489160D02*
X191437260Y-149339300D01*
X191437260Y-149339300D02*
X191236600Y-149141180D01*
X191236600Y-149141180D02*
X191086740Y-148739860D01*
X191086740Y-148739860D02*
X191086740Y-148341080D01*
X191086740Y-148341080D02*
X191236600Y-147990560D01*
X191236600Y-147990560D02*
X191688720Y-147640040D01*
X191688720Y-147640040D02*
X192138300Y-147589240D01*
X192138300Y-147589240D02*
X192537080Y-147690840D01*
X192537080Y-147690840D02*
X192938400Y-148038820D01*
X192938400Y-148038820D02*
X193088260Y-148490940D01*
X193088260Y-148490940D02*
X193037460Y-148988780D01*
X193037460Y-148988780D02*
X192788540Y-149291040D01*
X192788540Y-149291040D02*
X192438020Y-149489160D01*
X192438020Y-149489160D02*
X192788540Y-150489920D01*
X191736980Y-149489160D02*
X191338200Y-150489920D01*
%LPC*%
D12*
X182455000Y-150552500D03*
X240455000Y-150552500D03*
X240455000Y-102552500D03*
X182455000Y-102552500D03*
D13*
X187325000Y-103822500D03*
X189865000Y-103822500D03*
X189865000Y-101282500D03*
X192405000Y-103822500D03*
X192405000Y-101282500D03*
X194945000Y-103822500D03*
X194945000Y-101282500D03*
X197485000Y-103822500D03*
X197485000Y-101282500D03*
X200025000Y-103822500D03*
X200025000Y-101282500D03*
X202565000Y-103822500D03*
X202565000Y-101282500D03*
X205105000Y-103822500D03*
X205105000Y-101282500D03*
X207645000Y-103822500D03*
X207645000Y-101282500D03*
X210185000Y-103822500D03*
X210185000Y-101282500D03*
X212725000Y-103822500D03*
X212725000Y-101282500D03*
X215265000Y-103822500D03*
X215265000Y-101282500D03*
X217805000Y-103822500D03*
X217805000Y-101282500D03*
X220345000Y-103822500D03*
X220345000Y-101282500D03*
X222885000Y-103822500D03*
X222885000Y-101282500D03*
X225425000Y-103822500D03*
X225425000Y-101282500D03*
X227965000Y-103822500D03*
X227965000Y-101282500D03*
X230505000Y-103822500D03*
X230505000Y-101282500D03*
X233045000Y-103822500D03*
X233045000Y-101282500D03*
X235585000Y-103822500D03*
X235585000Y-101282500D03*
X187325000Y-101282500D03*
D14*
X194310000Y-129965000D03*
X194310000Y-135465000D03*
X198510000Y-129965000D03*
X198510000Y-135465000D03*
X202710000Y-129965000D03*
X202710000Y-135465000D03*
X190110000Y-135465000D03*
X190110000Y-129965000D03*
X185910000Y-135465000D03*
X185910000Y-129965000D03*
D15*
X207410000Y-135005000D03*
X181210000Y-135005000D03*
D14*
X194319000Y-116996501D03*
X194319000Y-122496501D03*
X198519000Y-116996501D03*
X198519000Y-122496501D03*
X202719000Y-116996501D03*
X202719000Y-122496501D03*
X190119000Y-122496501D03*
X190119000Y-116996501D03*
X185919000Y-122496501D03*
X185919000Y-116996501D03*
D15*
X207419000Y-122036501D03*
X181219000Y-122036501D03*
D16*
X184457500Y-140057500D03*
X184457500Y-145057500D03*
X202257500Y-145057500D03*
X202257500Y-140057500D03*
M02*
